<?xml version="1.0" encoding="iso-8859-1"?>
<!-- Generator: Adobe Illustrator 14.0.0, SVG Export Plug-In . SVG Version: 6.00 Build 43363)  -->
<!DOCTYPE svg PUBLIC "-//W3C//DTD SVG 1.1//EN" "http://www.w3.org/Graphics/SVG/1.1/DTD/svg11.dtd">
<svg version="1.1" id="&#x30EC;&#x30A4;&#x30E4;&#x30FC;_1"
	 xmlns="http://www.w3.org/2000/svg" xmlns:xlink="http://www.w3.org/1999/xlink" x="0px" y="0px" width="128px" height="128px"
	 viewBox="0 0 128 128" style="enable-background:new 0 0 128 128;" xml:space="preserve">
<g>
	<path style="fill:#FFFFFF;" d="M36.333,49.229c0-2.826,1.591-3.492,3.606-3.492h4.436v1.393h-4.216
		c-1.49,0-2.489,0.145-2.489,2.328v8.417c0,2.286,0.948,2.307,2.489,2.307h4.216v1.393h-4.436c-2.015,0-3.606-0.666-3.606-3.471
		V49.229z"/>
	<path style="fill:#FFFFFF;" d="M47.894,52.264c0.711-1.248,1.422-2.868,3.657-2.91h0.254v1.393h-0.254
		c-1.896,0.063-2.251,0.977-3.606,2.993v7.835h-1.338V49.354h1.135L47.894,52.264z"/>
	<path style="fill:#FFFFFF;" d="M54.647,49.354v8.771c0,1.6,0.542,2.141,1.761,2.141h1.117c1.338,0,2.354-0.562,2.354-2.432v-8.479
		l1.337-0.021v12.906c0,2.037-0.745,3.284-2.505,3.284h-4.792l-0.119-1.331l4.876,0.021c1.016-0.042,1.202-0.811,1.202-1.954v-1.808
		c-0.474,0.769-1.185,1.081-2.015,1.081h-1.456c-1.761,0-3.115-0.79-3.115-3.201v-8.999L54.647,49.354z"/>
	<path style="fill:#FFFFFF;" d="M70.932,58.228c0,2.889-1.812,3.346-3.759,3.346h-3.589v-1.372h3.521
		c1.083,0,2.523-0.167,2.523-1.933c0-3.617-6.298-0.562-6.298-5.694c0-2.578,1.608-3.222,3.42-3.222h3.505v1.372h-3.217
		c-1.101,0-2.354,0.042-2.354,1.808C64.685,56.045,70.932,53.344,70.932,58.228z"/>
	<path style="fill:#FFFFFF;" d="M75.01,46.34v3.055h2.98v1.226h-2.98v7.71c0,1.123,0.22,1.871,1.236,1.871h1.727l0.017,1.372h-1.795
		c-1.71,0-2.489-0.998-2.489-3.243v-7.71h-1.507v-1.226h1.507l0.068-3.055H75.01z"/>
	<path style="fill:#FFFFFF;" d="M83.709,49.354c1.795-0.021,3.505,0.583,3.505,3.159v9.062h-1.168l-0.068-1.642
		c-0.795,1.247-1.998,1.663-3.302,1.663c-1.879,0-3.233-0.936-3.233-3.512c0-4.697,4.012-4.053,6.501-4.053v-1.496
		c0-1.621-1.185-1.912-2.286-1.891h-3.353v-1.289H83.709z M85.945,58.706v-3.471h-2.252c-1.575,0-2.895,0.416-2.895,2.764
		c0,1.767,0.931,2.307,2.15,2.307C84.083,60.306,85.183,59.766,85.945,58.706z"/>
	<path style="fill:#FFFFFF;" d="M90.124,61.574V45.01h1.337v16.564H90.124z"/>
</g>
<g>
	<path style="fill:#FFFFFF;" d="M22.826,109.517h-1.74l-1.56-3.641c-0.72-1.54-1.42-2.721-3.121-2.721h-2.74v6.361h-1.581V94.274
		h6.702c1.68,0,3.781,0.6,3.781,3.541v1.78c0,2.22-1.46,3.5-3.481,3.5c0.76,0.3,1.34,1.201,1.701,2.021L22.826,109.517z
		 M13.665,101.916h5.141c1.4,0,2.16-0.82,2.16-2.18v-1.94c0-1.38-0.74-2.181-2.18-2.181h-5.121V101.916z"/>
	<path style="fill:#FFFFFF;" d="M30.865,97.755c2.16,0,4.061,0.72,4.061,3.201v0.6c0,2.5-1.92,3.061-4.061,3.061h-3.701
		c0,2.161-0.2,3.581,2.36,3.581h4.621v1.32h-4.621c-2.581,0-3.941-0.74-3.941-3.5v-5.061c0-2.48,1.88-3.201,4.061-3.201H30.865z
		 M30.885,99.095h-1.26c-1.561,0-2.44,0.26-2.44,2.041v2.3h3.681c1.56,0,2.46-0.28,2.46-2.061
		C33.326,99.435,32.686,99.095,30.885,99.095z"/>
	<path style="fill:#FFFFFF;" d="M46.025,106.297c0,2.78-2.14,3.22-4.441,3.22h-4.241v-1.32h4.161c1.28,0,2.98-0.16,2.98-1.861
		c0-3.48-7.442-0.54-7.442-5.481c0-2.48,1.901-3.101,4.041-3.101h4.141v1.32h-3.801c-1.3,0-2.781,0.04-2.781,1.74
		C38.644,104.196,46.025,101.596,46.025,106.297z"/>
	<path style="fill:#FFFFFF;" d="M53.325,97.755c2.681,0,4.081,1.12,4.081,3.341v5.101c0,2.22-1.38,3.32-4.081,3.32h-1.04
		c-2.701,0-4.061-1.1-4.061-3.32v-5.101c0-2.241,1.36-3.341,4.061-3.341H53.325z M55.825,101.136c-0.02-1.861-1-2.041-2.46-2.041
		h-1.1c-1.46,0-2.44,0.18-2.46,2.041v4.861c0.02,1.98,1.2,2.201,2.48,2.201h1.06c1.46,0,2.46-0.2,2.48-2.041V101.136z"/>
	<path style="fill:#FFFFFF;" d="M69.746,101.076v8.441h-1.581v-8.421c0-1.38-0.72-2.181-2.061-2.181c-1.5,0-3.32,1.14-4.061,2.201
		l0.02,8.401h-1.561V97.995h1.32l0.12,1.761c1.28-1.36,3.061-2.101,4.601-2.101C68.525,97.655,69.746,98.935,69.746,101.076z"/>
	<path style="fill:#FFFFFF;" d="M77.484,97.755c2.12-0.02,4.141,0.56,4.141,3.041v8.722h-1.38l-0.08-1.58
		c-0.94,1.2-2.36,1.6-3.9,1.6c-2.221,0-3.821-0.9-3.821-3.38c0-4.521,4.741-3.901,7.682-3.901v-1.44c0-1.561-1.4-1.84-2.7-1.82
		h-3.961v-1.24H77.484z M80.125,106.757v-3.341h-2.66c-1.86,0-3.421,0.4-3.421,2.661c0,1.7,1.1,2.22,2.541,2.22
		C77.924,108.297,79.225,107.777,80.125,106.757z"/>
	<path style="fill:#FFFFFF;" d="M94.385,101.076v8.441h-1.581v-8.421c0-1.38-0.72-2.181-2.061-2.181c-1.5,0-3.32,1.14-4.061,2.201
		l0.02,8.401h-1.561V97.995h1.32l0.12,1.761c1.28-1.36,3.061-2.101,4.601-2.101C93.165,97.655,94.385,98.935,94.385,101.076z"/>
	<path style="fill:#FFFFFF;" d="M101.404,99.075c-1.46,0-2.46,0.2-2.46,2.061v5.021c0,1.84,1,2.041,2.48,2.041h3.781l0.02,1.32
		h-3.801c-2.721,0-4.061-1.04-4.061-3.181v-5.381c0-2.121,1.38-3.201,4.061-3.201h3.781l0.02,1.32H101.404z"/>
	<path style="fill:#FFFFFF;" d="M112.824,97.755c2.16,0,4.061,0.72,4.061,3.201v0.6c0,2.5-1.92,3.061-4.061,3.061h-3.701
		c0,2.161-0.2,3.581,2.36,3.581h4.621v1.32h-4.621c-2.581,0-3.941-0.74-3.941-3.5v-5.061c0-2.48,1.88-3.201,4.061-3.201H112.824z
		 M112.844,99.095h-1.26c-1.561,0-2.44,0.26-2.44,2.041v2.3h3.681c1.56,0,2.46-0.28,2.46-2.061
		C115.285,99.435,114.645,99.095,112.844,99.095z"/>
</g>
<polygon style="fill:none;stroke:#FFFFFF;stroke-width:2;" points="2.409,54.581 64.072,17.583 125.734,54.581 64.071,91.577 "/>
<polygon style="fill:none;stroke:#FFFFFF;stroke-width:5;" points="13.578,54.581 64.142,24.242 114.707,54.581 64.142,84.919 "/>
</svg>
